<?xml version="1.0" encoding="UTF-8" standalone="no"?>
<svg width="32" height="32" xmlns="http://www.w3.org/2000/svg" xmlns:svg="http://www.w3.org/2000/svg">
 <g>
  <path d="m298.8595,8.50021l0.05368,0l0.01657,-0.05099l0.01657,0.05099l0.05368,0l-0.04343,0.03151l0.0166,0.05099l-0.04343,-0.03151l-0.04343,0.03151l0.0166,-0.05099l-0.04343,-0.03151l0,0z" stroke-linecap="null" stroke-linejoin="null" stroke-dasharray="null" stroke-width="3" stroke="#ffffff" fill="#ffffff" />
  <path d="m5.5,15.21381l0.75138,0l0.23218,-0.71381l0.23219,0.71381l0.75138,0l-0.60788,0.44115l0.23219,0.71381l-0.60788,-0.44117l-0.60788,0.44117l0.2322,-0.71381l-0.60788,-0.44115l0,0z" stroke-linecap="null" stroke-linejoin="null" stroke-dasharray="null" stroke-width="3" stroke="#ffffff" fill="#ffffff" />
  <path d="m5.5,6.21381l0.75139,0l0.23218,-0.71381l0.23218,0.71381l0.75138,0l-0.60788,0.44115l0.2322,0.71381l-0.60788,-0.44116l-0.60788,0.44116l0.23219,-0.71381l-0.60788,-0.44115l0,0z" stroke-linecap="null" stroke-linejoin="null" stroke-dasharray="null" stroke-width="3" stroke="#ffffff" fill="#ffffff" />
  <path d="m5.5,25.21381l0.75138,0l0.23219,-0.71381l0.23218,0.71381l0.75138,0l-0.60788,0.44115l0.2322,0.71381l-0.60788,-0.44116l-0.60789,0.44116l0.2322,-0.71381l-0.60788,-0.44115l0,0z" stroke-linecap="null" stroke-linejoin="null" stroke-dasharray="null" stroke-width="3" stroke="#ffffff" fill="#ffffff" />
  <path d="m14.5,15.21381l0.75138,0l0.23219,-0.71381l0.23218,0.71381l0.75138,0l-0.60788,0.44115l0.2322,0.71381l-0.60788,-0.44116l-0.60789,0.44116l0.2322,-0.71381l-0.60788,-0.44115l0,0z" stroke-linecap="null" stroke-linejoin="null" stroke-dasharray="null" stroke-width="3" stroke="#ffffff" fill="#ffffff" />
  <path d="m14.5,25.21381l0.75138,0l0.23219,-0.71381l0.23218,0.71381l0.75138,0l-0.60788,0.44115l0.2322,0.71381l-0.60788,-0.44116l-0.60789,0.44116l0.2322,-0.71381l-0.60788,-0.44115l0,0z" stroke-linecap="null" stroke-linejoin="null" stroke-dasharray="null" stroke-width="3" stroke="#ffffff" fill="#ffffff" />
  <path d="m24.5,25.21381l0.75138,0l0.23219,-0.71381l0.23218,0.71381l0.75138,0l-0.60788,0.44115l0.2322,0.71381l-0.60788,-0.44116l-0.60789,0.44116l0.2322,-0.71381l-0.60788,-0.44115l0,0z" stroke-linecap="null" stroke-linejoin="null" stroke-dasharray="null" stroke-width="3" stroke="#ffffff" fill="#ffffff" />
 </g>
</svg>
